nColumns=19
nRows=58
DataType=double
version=3
OpenSimVersion=4.1
endheader
time	ground_force_1_vx	ground_force_1_vy	ground_force_1_vz	ground_force_1_px	ground_force_1_py	ground_force_1_pz	ground_force_1_mx	ground_force_1_my	ground_force_1_mz	ground_force_2_vx	ground_force_2_vy	ground_force_2_vz	ground_force_2_px	ground_force_2_py	ground_force_2_pz	ground_force_2_mx	ground_force_2_my	ground_force_2_mz
0	-25.7043	114.448	7.16637	0.0511004	0.006	-0.14724	0	0.169817	0	0	0	0	0.631941	0	-0.16818	0	0	0
0.01	-34.3502	153.778	8.08963	0.0577934	0.006	-0.146623	0	0.174091	0	0	0	0	0.631941	0	-0.16818	0	0	0
0.02	-44.1838	197.956	8.77413	0.0640394	0.006	-0.14592	0	0.18868	0	0	0	0	0.631941	0	-0.16818	0	0	0
0.03	-55.0603	245.963	9.07307	0.0692804	0.006	-0.145206	0	0.214004	0	0	0	0	0.631941	0	-0.16818	0	0	0
0.04	-66.7342	296.562	8.84367	0.0739534	0.006	-0.144456	0	0.251488	0	0	0	0	0.631941	0	-0.16818	0	0	0
0.05	-78.837	348.452	7.97103	0.0782844	0.006	-0.143653	0	0.301317	0	0	0	0	0.631941	0	-0.16818	0	0	0
0.06	-90.9372	400.309	6.38245	0.0823844	0.006	-0.142791	0	0.360986	0	0	0	0	0.631941	0	-0.16818	0	0	0
0.07	-102.559	450.814	4.07583	0.0862934	0.006	-0.141876	0	0.426694	0	0	0	0	0.631941	0	-0.16818	0	0	0
0.08	-113.205	498.691	1.13345	0.0900114	0.006	-0.14092	0	0.495987	0	0	0	0	0.631941	0	-0.16818	0	0	0
0.09	-122.416	542.777	-2.29363	0.0935284	0.006	-0.139936	0	0.567263	0	0	0	0	0.631941	0	-0.16818	0	0	0
0.1	-129.844	582.132	-6.02684	0.0968374	0.006	-0.138933	0	0.637168	0	0	0	0	0.631941	0	-0.16818	0	0	0
0.11	-135.276	616.083	-9.88817	0.0999504	0.006	-0.137914	0	0.700487	0	0	0	0	0.631941	0	-0.16818	0	0	0
0.12	-138.625	644.186	-13.711	0.102886	0.006	-0.136877	0	0.751639	0	0	0	0	0.631941	0	-0.16818	0	0	0
0.13	-139.912	666.184	-17.3522	0.105673	0.006	-0.135817	0	0.785463	0	0	0	0	0.631941	0	-0.16818	0	0	0
0.14	-139.254	681.997	-20.7036	0.108349	0.006	-0.134724	0	0.797602	0	0	0	0	0.631941	0	-0.16818	0	0	0
0.15	-136.839	691.703	-23.6922	0.110957	0.006	-0.133587	0	0.785316	0	0	0	0	0.631941	0	-0.16818	0	0	0
0.16	-132.909	695.538	-26.2738	0.113542	0.006	-0.132394	0	0.748158	0	0	0	0	0.631941	0	-0.16818	0	0	0
0.17	-127.734	693.887	-28.4304	0.116147	0.006	-0.131133	0	0.687676	0	0	0	0	0.631941	0	-0.16818	0	0	0
0.18	-121.592	687.279	-30.1638	0.118808	0.006	-0.129798	0	0.606863	0	0	0	0	0.631941	0	-0.16818	0	0	0
0.19	-114.746	676.369	-31.4885	0.12155	0.006	-0.128384	0	0.50962	0	0	0	0	0.631941	0	-0.16818	0	0	0
0.2	-107.43	661.895	-32.4288	0.124386	0.006	-0.126892	0	0.39985	0	0	0	0	0.631941	0	-0.16818	0	0	0
0.21	-99.8374	644.643	-33.0157	0.127315	0.006	-0.125328	0	0.280755	0	0	0	0	0.631941	0	-0.16818	0	0	0
0.22	-92.1244	625.408	-33.2861	0.130329	0.006	-0.123702	0	0.154417	0	0	0	0	0.631941	0	-0.16818	0	0	0
0.23	-84.4214	604.959	-33.2817	0.13341	0.006	-0.12203	0	0.021722	0	0	0	0	0.631941	0	-0.16818	0	0	0
0.24	-76.8372	584.017	-33.0507	0.136541	0.006	-0.120329	0	-0.117607	0	0	0	0	0.631941	0	-0.16818	0	0	0
0.25	-69.4636	563.233	-32.6471	0.1397	0.006	-0.118622	0	-0.264632	0	0	0	0	0.631941	0	-0.16818	0	0	0
0.26	-62.3784	543.194	-32.1285	0.142869	0.006	-0.116934	0	-0.420773	0	0	0	0	0.631941	0	-0.16818	0	0	0
0.27	-55.6481	524.414	-31.5529	0.14603	0.006	-0.115294	0	-0.587493	0	0	0	0	0.631941	0	-0.16818	0	0	0
0.28	-49.3289	507.336	-30.9739	0.149171	0.006	-0.113735	0	-0.766366	0	0	0	0	0.631941	0	-0.16818	0	0	0
0.29	-43.4642	492.335	-30.4369	0.152282	0.006	-0.112295	0	-0.959351	0	0	0	0	0.631941	0	-0.16818	0	0	0
0.3	-38.08	479.709	-29.9744	0.155356	0.006	-0.111013	0	-1.16884	0	0	0	0	0.631941	0	-0.16818	0	0	0
0.31	-33.181	469.687	-29.604	0.158386	0.006	-0.109929	0	-1.39749	0	0	0	0	0.631941	0	-0.16818	0	0	0
0.32	-28.7478	462.423	-29.3288	0.161367	0.006	-0.109081	0	-1.64804	0	0	0	0	0.631941	0	-0.16818	0	0	0
0.33	-24.7391	457.999	-29.1372	0.164294	0.006	-0.108498	0	-1.92312	0	0	0	0	0.631941	0	-0.16818	0	0	0
0.34	-21.0948	456.438	-29.0055	0.167167	0.006	-0.108198	0	-2.22484	0	0	0	0	0.631941	0	-0.16818	0	0	0
0.35	-17.7431	457.711	-28.9024	0.169986	0.006	-0.108186	0	-2.55439	0	0	0	0	0.631941	0	-0.16818	0	0	0
0.36	-14.6062	461.739	-28.7947	0.172757	0.006	-0.108452	0	-2.9115	0	0	0	0	0.631941	0	-0.16818	0	0	0
0.37	-11.6044	468.394	-28.6557	0.17549	0.006	-0.108968	0	-3.29399	0	0	0	0	0.631941	0	-0.16818	0	0	0
0.38	-8.65733	477.491	-28.4715	0.178195	0.006	-0.109694	0	-3.69728	0	0	0	0	0.631941	0	-0.16818	0	0	0
0.39	-5.68614	488.793	-28.2453	0.180886	0.006	-0.110578	0	-4.11398	0	0	0	0	0.631941	0	-0.16818	0	0	0
0.4	-2.61644	502.012	-27.9991	0.183575	0.006	-0.111564	0	-4.53402	0	0	0	0	0.631941	0	-0.16818	0	0	0
0.41	0.617681	516.814	-27.7707	0.186274	0.006	-0.112592	0	-4.945	0	0	0	0	0.631941	0	-0.16818	0	0	0
0.42	4.06968	532.833	-27.606	0.188997	0.006	-0.113608	0	-5.33297	0	0	0	0	0.631941	0	-0.16818	0	0	0
0.43	7.77865	549.671	-27.5488	0.191751	0.006	-0.114566	0	-5.68346	0	0	0	0	0.631941	0	-0.16818	0	0	0
0.44	11.7687	566.914	-27.6311	0.194545	0.006	-0.115427	0	-5.98258	0	0	0	0	0.631941	0	-0.16818	0	0	0
0.45	16.0483	584.135	-27.8674	0.197383	0.006	-0.116167	0	-6.21821	0	0	0	0	0.631941	0	-0.16818	0	0	0
0.46	20.6103	600.902	-28.2521	0.20027	0.006	-0.116771	0	-6.38099	0	0	0	0	0.631941	0	-0.16818	0	0	0
0.47	25.4333	616.775	-28.7603	0.203204	0.006	-0.117234	0	-6.46505	0	0	0	0	0.631941	0	-0.16818	0	0	0
0.48	30.4835	631.323	-29.3498	0.206184	0.006	-0.117564	0	-6.46838	0	0	0	0	0.631941	0	-0.16818	0	0	0
0.49	35.7182	644.127	-29.9636	0.209203	0.006	-0.117773	0	-6.39285	0	0	0	0	0.631941	0	-0.16818	0	0	0
0.5	41.0891	654.798	-30.5343	0.212252	0.006	-0.117879	0	-6.24387	0	0	0	0	0.631941	0	-0.16818	0	0	0
0.51	46.5459	662.986	-30.99	0.215315	0.006	-0.117904	0	-6.02973	0	0	0	0	0.631941	0	-0.16818	0	0	0
0.52	52.0365	668.376	-31.2614	0.218377	0.006	-0.117868	0	-5.76076	0	0	0	0	0.631941	0	-0.16818	0	0	0
0.53	57.504	670.685	-31.289	0.221419	0.006	-0.117791	0	-5.4483	0	0	0	0	0.631941	0	-0.16818	0	0	0
0.54	62.8828	669.658	-31.0299	0.224425	0.006	-0.117691	0	-5.10368	0	0	0	0	0.631941	0	-0.16818	0	0	0
0.55	68.0927	665.064	-30.462	0.227381	0.006	-0.117581	0	-4.73729	0	-1.38819	32.2297	-7.69554	0.66292	0.006	-0.182612	0	-0.031646	0
0.56	73.033	656.706	-29.5834	0.230278	0.006	-0.117473	0	-4.35799	0	-3.19454	49.8958	-9.12619	0.690563	0.006	-0.194925	0	0.082152	0
0.57	77.5809	644.427	-28.4089	0.233111	0.006	-0.117372	0	-3.97306	0	-5.63282	71.1314	-10.6015	0.707451	0.006	-0.201934	0	0.158344	0
